<?xml version="1.0" encoding="UTF-8"?>
<!DOCTYPE svg PUBLIC "-//W3C//DTD SVG 1.1//EN" "http://www.w3.org/Graphics/SVG/1.1/DTD/svg11.dtd">
<svg xmlns="http://www.w3.org/2000/svg" version="1.1" width="350px" height="129px" style="shape-rendering:geometricPrecision; text-rendering:geometricPrecision; image-rendering:optimizeQuality; fill-rule:evenodd; clip-rule:evenodd" xmlns:xlink="http://www.w3.org/1999/xlink">
<g><path style="opacity:1" fill="#fefefd" d="M -0.5,-0.5 C 116.167,-0.5 232.833,-0.5 349.5,-0.5C 349.5,42.5 349.5,85.5 349.5,128.5C 232.833,128.5 116.167,128.5 -0.5,128.5C -0.5,85.5 -0.5,42.5 -0.5,-0.5 Z"/></g>
<g><path style="opacity:1" fill="#ffc111" d="M 332.5,8.5 C 336.757,8.78383 339.757,10.7838 341.5,14.5C 340.051,17.7318 338.884,21.0651 338,24.5C 336.997,39.2023 335.664,53.869 334,68.5C 333.167,81.1798 333.334,93.8465 334.5,106.5C 339.844,108.706 340.844,112.206 337.5,117C 330.094,121.053 325.261,118.886 323,110.5C 322.077,104.201 321.577,97.868 321.5,91.5C 322.873,74.1435 324.54,56.8101 326.5,39.5C 326.167,38.1667 325.833,36.8333 325.5,35.5C 313.089,51.9893 300.922,68.656 289,85.5C 283.694,90.9787 278.694,90.6453 274,84.5C 264.265,69.0246 257.265,52.3579 253,34.5C 248.057,50.2685 243.723,66.2685 240,82.5C 240.115,90.5177 240.448,98.5177 241,106.5C 237.468,112.29 233.135,112.957 228,108.5C 225.023,102.674 224.69,96.6737 227,90.5C 232.492,69.5328 237.825,48.5328 243,27.5C 243.795,25.0988 244.962,22.9321 246.5,21C 254.883,18.4406 260.383,21.2739 263,29.5C 266.283,45.3238 272.283,59.9905 281,73.5C 283.54,74.8765 285.54,74.2098 287,71.5C 296.846,55.9848 307.846,41.3181 320,27.5C 324.177,21.1382 328.344,14.8049 332.5,8.5 Z"/></g>
<g><path style="opacity:1" fill="#ffc213" d="M 203.5,19.5 C 210.921,19.1095 218.254,19.6095 225.5,21C 227.282,23.2431 227.782,25.7431 227,28.5C 217.422,30.2955 207.589,31.1288 197.5,31C 191.545,31.6916 186.045,33.5249 181,36.5C 179.908,39.0444 179.241,41.7111 179,44.5C 176.005,66.4338 175.005,88.4338 176,110.5C 173.523,115.368 170.523,115.701 167,111.5C 165.601,108.637 164.601,105.637 164,102.5C 163.333,94.5 163.333,86.5 164,78.5C 165.747,64.8599 167.247,51.1932 168.5,37.5C 155.215,39.2543 141.882,40.0877 128.5,40C 125.689,36.7065 126.022,33.7065 129.5,31C 154.716,29.8223 179.383,25.9889 203.5,19.5 Z"/></g>
<g><path style="opacity:1" fill="#161616" d="M 116.5,35.5 C 118.199,35.3398 119.866,35.5065 121.5,36C 122.956,36.4226 123.456,37.2559 123,38.5C 105.11,64.9958 87.2765,91.3292 69.5,117.5C 68.479,116.998 68.3123,116.332 69,115.5C 74.0838,106.997 79.4171,98.6637 85,90.5C 86.5621,88.0427 87.5621,85.376 88,82.5C 93.706,75.7927 99.0393,68.7927 104,61.5C 106.289,57.5056 108.622,53.5056 111,49.5C 112.537,44.6511 114.371,39.9844 116.5,35.5 Z"/></g>
<g><path style="opacity:1" fill="#121212" d="M 28.5,50.5 C 36.991,50.6228 44.991,52.6228 52.5,56.5C 53.7362,55.7542 55.0695,55.4208 56.5,55.5C 56.4332,57.4008 56.7665,59.2341 57.5,61C 56.6368,63.2265 55.6368,65.3932 54.5,67.5C 54.7093,68.086 55.0426,68.586 55.5,69C 54.5752,77.0631 53.2419,85.0631 51.5,93C 51.5562,96.6938 51.7229,100.527 52,104.5C 52.7096,105.973 53.8762,106.64 55.5,106.5C 55.2965,108.39 55.9632,109.89 57.5,111C 55.3968,113.554 52.8968,114.054 50,112.5C 48.9718,105.314 48.1385,98.1477 47.5,91C 49.0891,87.576 49.4224,84.076 48.5,80.5C 47.1861,81.3128 46.0195,82.3128 45,83.5C 38.0191,95.9689 28.8524,106.302 17.5,114.5C 14.8061,112.473 12.4728,110.139 10.5,107.5C 10.5602,103.277 10.7269,98.9439 11,94.5C 13.2715,82.6154 16.2715,70.6154 20,58.5C 22.1565,55.0241 24.9898,52.3575 28.5,50.5 Z"/></g>
<g><path style="opacity:1" fill="#fafafa" d="M 30.5,55.5 C 37.9967,54.7053 44.4967,56.7053 50,61.5C 49.8977,67.9774 48.0644,73.9774 44.5,79.5C 36.9812,89.6966 28.6479,99.1966 19.5,108C 15.6629,109 13.6629,107.5 13.5,103.5C 13.6322,99.6368 14.6322,96.1368 16.5,93C 15.4238,91.2739 15.2571,89.4406 16,87.5C 17.4846,81.7576 19.3179,76.2576 21.5,71C 20.852,66.7869 22.0187,62.9536 25,59.5C 27.0153,58.3034 28.8487,56.9701 30.5,55.5 Z"/></g>
</svg>
